<svg width="1024" height="1024" viewBox="0 0 1024 1024" fill="none" xmlns="http://www.w3.org/2000/svg">
  <rect width="1024" height="1024" rx="240" fill="url(#panel)"/>
  <rect x="44" y="44" width="936" height="936" rx="210" stroke="url(#edge)" stroke-width="8"/>
  <circle cx="764" cy="250" r="138" fill="url(#warmGlow)" fill-opacity="0.92"/>
  <circle cx="270" cy="764" r="126" fill="url(#coolGlow)" fill-opacity="0.78"/>
  <path d="M312 236H515C645 236 723 306 723 407C723 483 680 536 606 562C645 579 669 610 686 652L731 764H606L569 671C548 617 523 603 462 603H428V764H312V236ZM428 509H502C580 509 632 472 632 418C632 364 580 330 502 330H428V509Z" fill="#FFF8F0"/>
  <path d="M555 586C624 598 686 638 729 700" stroke="url(#warmLine)" stroke-width="28" stroke-linecap="round"/>
  <path d="M464 603C430 644 377 680 312 700" stroke="url(#coolLine)" stroke-width="24" stroke-linecap="round"/>
  <circle cx="742" cy="721" r="22" fill="#FDB67D"/>
  <circle cx="284" cy="709" r="18" fill="#80D8CC"/>
  <defs>
    <linearGradient id="panel" x1="116" y1="88" x2="906" y2="980" gradientUnits="userSpaceOnUse">
      <stop stop-color="#111720"/>
      <stop offset="0.5" stop-color="#171D29"/>
      <stop offset="1" stop-color="#0F141C"/>
    </linearGradient>
    <linearGradient id="edge" x1="102" y1="100" x2="918" y2="950" gradientUnits="userSpaceOnUse">
      <stop stop-color="#343B47"/>
      <stop offset="0.52" stop-color="#222A35"/>
      <stop offset="1" stop-color="#3E4755"/>
    </linearGradient>
    <radialGradient id="warmGlow" cx="0" cy="0" r="1" gradientUnits="userSpaceOnUse" gradientTransform="translate(764 250) rotate(90) scale(138)">
      <stop stop-color="#FFC189"/>
      <stop offset="1" stop-color="#FFC189" stop-opacity="0"/>
    </radialGradient>
    <radialGradient id="coolGlow" cx="0" cy="0" r="1" gradientUnits="userSpaceOnUse" gradientTransform="translate(270 764) rotate(90) scale(126)">
      <stop stop-color="#70D5C9"/>
      <stop offset="1" stop-color="#70D5C9" stop-opacity="0"/>
    </radialGradient>
    <linearGradient id="warmLine" x1="561" y1="591" x2="728" y2="700" gradientUnits="userSpaceOnUse">
      <stop stop-color="#FFE3C6"/>
      <stop offset="1" stop-color="#F0A462"/>
    </linearGradient>
    <linearGradient id="coolLine" x1="454" y1="609" x2="304" y2="702" gradientUnits="userSpaceOnUse">
      <stop stop-color="#C6FFF5"/>
      <stop offset="1" stop-color="#59CABB"/>
    </linearGradient>
  </defs>
</svg>
